<?xml version="1.0" encoding="UTF-8" standalone="no"?>
<!DOCTYPE svg PUBLIC "-//W3C//DTD SVG 1.1//EN" "http://www.w3.org/Graphics/SVG/1.1/DTD/svg11.dtd">
<svg version="1.1" xmlns="http://www.w3.org/2000/svg" xmlns:xlink="http://www.w3.org/1999/xlink" preserveAspectRatio="xMidYMid meet" viewBox="-1 69 644.7330291156447 313.8573146465037" width="640.73" height="309.86"><defs><path d="M85.98 264.89C105.1 244.17 129.33 235.13 158.67 237.79C159.99 150.64 186.91 99.46 239.43 84.22C291.95 68.99 337.04 94.99 374.7 162.22C420.06 129.47 459.55 123.38 493.19 143.94C526.83 164.51 545.23 204.82 548.41 264.89C578.73 259.26 601.59 265.66 616.98 284.1C632.37 302.54 640.29 333.01 640.73 375.51L50 375.51C54.86 322.48 66.85 285.6 85.98 264.89Z" id="dF69SVfiE"></path><path d="M0 373.27L640 373.27L640 379.86L0 379.86L0 373.27Z" id="c8FOBPMAg"></path><path d="M87.33 332.21L81.2 373.27L54.65 373.27L49.27 332.21L87.33 332.21Z" id="ajuJlPC"></path><path d="M84.98 324.59C88.41 320.23 87.79 315.73 84.98 314.78C82.17 313.82 76.55 321.86 73.74 320.77C70.93 319.68 70.93 314.64 73.74 310.42C76.55 306.19 82.17 308.37 84.98 303.88C87.79 299.38 87.79 294.34 84.98 292.43C82.17 290.53 76.31 298.7 73.74 296.25C71.17 293.8 71.91 290.94 74.72 284.8C77.53 278.67 82.3 277.58 82.05 271.73C81.89 267.82 77.33 264.55 68.36 261.92C60.46 264.19 56.71 267.46 57.12 271.73C57.73 278.13 61.64 279.16 63.96 284.8C66.29 290.45 64.45 294.34 61.52 296.25C58.59 298.16 54.55 290.53 52.23 292.43C49.91 294.34 48.96 299.38 52.23 303.88C55.5 308.37 62.05 306.19 65.32 310.42C68.6 314.64 68.96 320.09 65.32 320.77C61.68 321.45 53.55 312.19 50.76 313.14C47.98 314.09 49.05 319.82 54.19 324.59C57.61 327.76 63.31 330.31 71.3 332.21C78.14 330.03 82.7 327.49 84.98 324.59Z" id="c12IP5wRoS"></path><path d="M155 225C155 238.8 143.8 250 130 250C116.2 250 105 238.8 105 225C105 211.2 116.2 200 130 200C143.8 200 155 211.2 155 225Z" id="ebzv2H8RI"></path><path d="M127.03 215C127.03 217.76 124.79 220 122.03 220C119.27 220 117.03 217.76 117.03 215C117.03 212.24 119.27 210 122.03 210C124.79 210 127.03 212.24 127.03 215Z" id="jdWflSHKw"></path><path d="M140 235C140 237.76 137.76 240 135 240C132.24 240 130 237.76 130 235C130 232.24 132.24 230 135 230C137.76 230 140 232.24 140 235Z" id="b1NA7t4eO8"></path><path d="M118.7 241.49L141.3 210" id="b3doOFn1R2"></path><path d="M184.37 100C195.79 100 205.05 109.26 205.05 120.68C205.05 123.26 205.05 129.7 205.05 140C192.21 140 184.18 140 180.97 140C169.39 140 160 130.61 160 119.03C160 115.23 160 123.23 160 119.03C160 108.52 168.52 100 179.03 100C184.24 100 179.49 100 184.37 100Z" id="c13WaJGzo1"></path><path d="M183.77 127.29L183.77 127.3L178.94 132.18L170 123.13L174.83 118.25L178.94 122.41L191.21 110L196.04 114.88L183.77 127.29Z" id="gi1wmrDrF"></path><path d="M340 90C340 101.04 331.04 110 320 110C308.96 110 300 101.04 300 90C300 78.96 308.96 70 320 70C331.04 70 340 78.96 340 90Z" id="c3dC6M4A5J"></path><path d="M318.79 80.03L319.12 80.06L319.44 80.11L319.76 80.17L320.08 80.24L320.39 80.32L320.69 80.41L320.99 80.52L321.29 80.64L321.58 80.77L321.86 80.91L322.14 81.06L322.4 81.22L322.67 81.39L322.92 81.57L323.17 81.76L323.41 81.96L323.65 82.16L323.87 82.38L324.09 82.6L324.29 82.84L324.49 83.08L324.68 83.33L324.86 83.58L325.03 83.85L325.19 84.11L325.34 84.39L325.48 84.67L325.61 84.96L325.73 85.26L325.84 85.56L325.93 85.86L326.01 86.17L326.08 86.49L326.14 86.81L326.19 87.13L326.22 87.46L326.24 87.79L326.25 88.13L326.24 88.46L326.22 88.79L326.19 89.12L326.14 89.44L326.08 89.76L326.01 90.08L325.93 90.39L325.84 90.69L325.73 90.99L325.61 91.29L325.48 91.58L325.34 91.86L325.19 92.14L325.03 92.4L324.87 92.66L330 97.79L327.79 100L322.66 94.87L322.4 95.03L322.14 95.19L321.86 95.34L321.58 95.48L321.29 95.61L320.99 95.73L320.69 95.84L320.39 95.93L320.08 96.01L319.76 96.08L319.44 96.14L319.12 96.19L318.79 96.22L318.46 96.24L318.13 96.25L317.79 96.24L317.46 96.22L317.13 96.19L316.81 96.14L316.49 96.08L316.17 96.01L315.86 95.93L315.56 95.84L315.26 95.73L314.96 95.61L314.67 95.48L314.39 95.34L314.11 95.19L313.85 95.03L313.58 94.86L313.33 94.68L313.08 94.49L312.84 94.29L312.6 94.09L312.38 93.87L312.16 93.65L311.96 93.41L311.76 93.17L311.57 92.92L311.39 92.67L311.22 92.4L311.06 92.14L310.91 91.86L310.77 91.58L310.64 91.29L310.52 90.99L310.41 90.69L310.32 90.39L310.24 90.08L310.17 89.76L310.11 89.44L310.06 89.12L310.03 88.79L310.01 88.46L310 88.13L310.01 87.79L310.03 87.46L310.06 87.13L310.11 86.81L310.17 86.49L310.24 86.17L310.32 85.86L310.41 85.56L310.52 85.26L310.64 84.96L310.77 84.67L310.91 84.39L311.06 84.11L311.22 83.85L311.39 83.58L311.57 83.33L311.76 83.08L311.96 82.84L312.16 82.6L312.38 82.38L312.6 82.16L312.84 81.96L313.08 81.76L313.33 81.57L313.58 81.39L313.85 81.22L314.11 81.06L314.39 80.91L314.67 80.77L314.96 80.64L315.26 80.52L315.56 80.41L315.86 80.32L316.17 80.24L316.49 80.17L316.81 80.11L317.13 80.06L317.46 80.03L317.79 80.01L318.13 80L318.46 80.01L318.79 80.03ZM317.71 83.13L317.51 83.15L317.31 83.18L317.11 83.21L316.92 83.26L316.73 83.31L316.54 83.37L316.36 83.43L316.17 83.51L316 83.59L315.82 83.67L315.65 83.76L315.48 83.86L315.32 83.97L315.16 84.08L315.01 84.2L314.86 84.32L314.72 84.45L314.58 84.58L314.45 84.72L314.32 84.86L314.2 85.01L314.08 85.16L313.97 85.32L313.86 85.48L313.76 85.65L313.67 85.82L313.59 86L313.51 86.17L313.43 86.36L313.37 86.54L313.31 86.73L313.26 86.92L313.21 87.11L313.18 87.31L313.15 87.51L313.13 87.71L313.12 87.92L313.11 88.13L313.12 88.33L313.13 88.54L313.15 88.74L313.18 88.94L313.21 89.14L313.26 89.33L313.31 89.52L313.37 89.71L313.43 89.89L313.51 90.08L313.59 90.25L313.67 90.43L313.76 90.6L313.86 90.77L313.97 90.93L314.08 91.09L314.2 91.24L314.32 91.39L314.45 91.53L314.58 91.67L314.72 91.8L314.86 91.93L315.01 92.05L315.16 92.17L315.32 92.28L315.48 92.39L315.65 92.49L315.82 92.58L316 92.66L316.17 92.74L316.36 92.82L316.54 92.88L316.73 92.94L316.92 92.99L317.11 93.04L317.31 93.07L317.51 93.1L317.71 93.12L317.92 93.13L318.13 93.14L318.33 93.13L318.54 93.12L318.74 93.1L318.94 93.07L319.14 93.04L319.33 92.99L319.52 92.94L319.71 92.88L319.89 92.82L320.08 92.74L320.25 92.66L320.43 92.58L320.6 92.49L320.77 92.39L320.93 92.28L321.09 92.17L321.24 92.05L321.39 91.93L321.53 91.8L321.67 91.67L321.8 91.53L321.93 91.39L322.05 91.24L322.17 91.09L322.28 90.93L322.39 90.77L322.49 90.6L322.58 90.43L322.66 90.25L322.74 90.08L322.82 89.89L322.88 89.71L322.94 89.52L322.99 89.33L323.04 89.14L323.07 88.94L323.1 88.74L323.12 88.54L323.13 88.33L323.14 88.13L323.13 87.92L323.12 87.71L323.1 87.51L323.07 87.31L323.04 87.11L322.99 86.92L322.94 86.73L322.88 86.54L322.82 86.36L322.74 86.17L322.66 86L322.58 85.82L322.49 85.65L322.39 85.48L322.28 85.32L322.17 85.16L322.05 85.01L321.93 84.86L321.8 84.72L321.67 84.58L321.53 84.45L321.39 84.32L321.24 84.2L321.09 84.08L320.93 83.97L320.77 83.86L320.6 83.76L320.43 83.67L320.25 83.59L320.08 83.51L319.89 83.43L319.71 83.37L319.52 83.31L319.33 83.26L319.14 83.21L318.94 83.18L318.74 83.15L318.54 83.13L318.33 83.12L318.13 83.11L317.92 83.12L317.71 83.13Z" id="g1Vy0GNduJ"></path><path d="M535 235C535 248.8 523.8 260 510 260C496.2 260 485 248.8 485 235C485 221.2 496.2 210 510 210C523.8 210 535 221.2 535 235Z" id="b48Axv9cZi"></path><path d="M507.4 217.5L507.42 217.51L507.44 217.51L507.47 217.52L507.49 217.52L507.51 217.53L507.53 217.54L507.55 217.55L507.57 217.56L507.59 217.57L507.61 217.59L507.62 217.6L507.64 217.62L507.66 217.63L507.67 217.65L507.69 217.67L507.71 217.69L507.72 217.71L507.73 217.73L507.75 217.75L507.76 217.77L507.78 217.8L507.79 217.82L507.8 217.84L507.81 217.87L507.83 217.9L507.84 217.92L507.85 217.95L507.86 217.98L507.87 218.01L507.88 218.03L507.9 218.06L507.91 218.09L507.92 218.12L507.93 218.15L507.94 218.19L507.95 218.22L507.96 218.25L507.97 218.28L508.51 220.31L508.68 220.36L509.06 220.49L509.42 220.64L509.78 220.8L510.14 220.98L510.17 220.99L511.99 219.94L512.02 219.92L512.05 219.91L512.08 219.89L512.11 219.88L512.14 219.86L512.17 219.85L512.2 219.84L512.22 219.82L512.25 219.81L512.28 219.8L512.31 219.79L512.34 219.78L512.36 219.77L512.39 219.76L512.42 219.75L512.44 219.74L512.47 219.73L512.5 219.73L512.52 219.72L512.55 219.71L512.57 219.71L512.6 219.71L512.62 219.7L512.64 219.7L512.67 219.7L512.69 219.7L512.71 219.7L512.74 219.71L512.76 219.71L512.78 219.71L512.8 219.72L512.83 219.73L512.85 219.73L512.87 219.74L512.89 219.75L512.91 219.77L512.93 219.78L512.95 219.79L512.96 219.81L512.98 219.83L515.63 222.48L515.65 222.5L515.67 222.52L515.68 222.54L515.7 222.56L515.71 222.58L515.72 222.6L515.73 222.62L515.74 222.64L515.75 222.66L515.75 222.68L515.76 222.71L515.76 222.73L515.77 222.75L515.77 222.78L515.77 222.8L515.77 222.83L515.77 222.85L515.77 222.88L515.76 222.9L515.76 222.93L515.75 222.95L515.75 222.98L515.74 223.01L515.73 223.03L515.73 223.06L515.72 223.09L515.71 223.11L515.7 223.14L515.69 223.17L515.67 223.19L515.66 223.22L515.65 223.25L515.64 223.28L515.62 223.31L515.61 223.33L515.59 223.36L515.58 223.39L515.56 223.42L515.54 223.45L515.52 223.47L514.47 225.29L514.49 225.33L514.67 225.69L514.83 226.05L514.98 226.41L515.11 226.79L515.16 226.96L517.19 227.5L517.22 227.51L517.25 227.52L517.28 227.52L517.32 227.53L517.35 227.54L517.38 227.55L517.41 227.56L517.44 227.57L517.46 227.58L517.49 227.59L517.52 227.6L517.55 227.61L517.57 227.63L517.6 227.64L517.63 227.65L517.65 227.66L517.67 227.68L517.7 227.69L517.72 227.71L517.74 227.72L517.76 227.74L517.78 227.75L517.8 227.77L517.82 227.78L517.84 227.8L517.85 227.82L517.87 227.84L517.88 227.86L517.9 227.88L517.91 227.9L517.92 227.92L517.93 227.94L517.94 227.96L517.95 227.98L517.95 228L517.96 228.03L517.96 228.05L517.97 228.07L517.97 228.1L517.97 228.13L517.97 231.88L517.97 231.9L517.97 231.93L517.96 231.95L517.96 231.97L517.95 232L517.95 232.02L517.94 232.04L517.93 232.06L517.92 232.08L517.91 232.1L517.9 232.12L517.88 232.14L517.87 232.15L517.85 232.17L517.84 232.19L517.82 232.2L517.8 232.22L517.78 232.23L517.76 232.25L517.74 232.26L517.72 232.28L517.7 232.29L517.67 232.31L517.65 232.32L517.63 232.33L517.6 232.34L517.57 232.36L517.55 232.37L517.52 232.38L517.49 232.39L517.46 232.4L517.44 232.41L517.41 232.43L517.38 232.44L517.35 232.45L517.32 232.46L517.28 232.47L517.25 232.48L517.22 232.49L517.19 232.5L515.16 233.04L515.11 233.21L514.98 233.59L514.83 233.95L514.67 234.31L514.49 234.67L514.47 234.7L515.52 236.52L515.54 236.55L515.56 236.57L515.58 236.6L515.59 236.63L515.61 236.66L515.62 236.69L515.64 236.72L515.65 236.74L515.66 236.77L515.67 236.8L515.69 236.83L515.7 236.85L515.71 236.88L515.72 236.91L515.73 236.93L515.73 236.96L515.74 236.99L515.75 237.01L515.75 237.04L515.76 237.07L515.76 237.09L515.77 237.12L515.77 237.14L515.77 237.17L515.77 237.19L515.77 237.21L515.77 237.24L515.76 237.26L515.76 237.28L515.75 237.31L515.75 237.33L515.74 237.35L515.73 237.37L515.72 237.39L515.71 237.42L515.7 237.44L515.68 237.46L515.67 237.48L515.65 237.49L515.63 237.51L512.98 240.16L512.96 240.18L512.95 240.2L512.93 240.21L512.91 240.23L512.89 240.24L512.87 240.25L512.85 240.26L512.83 240.27L512.8 240.27L512.78 240.28L512.76 240.28L512.74 240.29L512.71 240.29L512.69 240.29L512.67 240.29L512.64 240.29L512.62 240.29L512.6 240.29L512.57 240.28L512.55 240.28L512.52 240.27L512.5 240.27L512.47 240.26L512.44 240.25L512.42 240.24L512.39 240.23L512.36 240.23L512.34 240.21L512.31 240.2L512.28 240.19L512.25 240.18L512.22 240.17L512.2 240.16L512.17 240.14L512.14 240.13L512.11 240.11L512.08 240.1L512.05 240.08L512.02 240.07L511.99 240.05L510.17 239L510.14 239.02L509.78 239.2L509.42 239.36L509.06 239.51L508.68 239.64L508.51 239.69L507.97 241.72L507.96 241.75L507.95 241.78L507.94 241.81L507.93 241.85L507.92 241.88L507.91 241.91L507.9 241.94L507.88 241.97L507.87 241.99L507.86 242.02L507.85 242.05L507.84 242.08L507.83 242.1L507.81 242.13L507.8 242.16L507.79 242.18L507.78 242.2L507.76 242.23L507.75 242.25L507.73 242.27L507.72 242.29L507.71 242.31L507.69 242.33L507.67 242.35L507.66 242.37L507.64 242.38L507.62 242.4L507.61 242.41L507.59 242.43L507.57 242.44L507.55 242.45L507.53 242.46L507.51 242.47L507.49 242.48L507.47 242.48L507.44 242.49L507.42 242.49L507.4 242.5L507.37 242.5L507.35 242.5L503.6 242.5L503.57 242.5L503.54 242.5L503.52 242.49L503.5 242.49L503.47 242.48L503.45 242.48L503.43 242.47L503.41 242.46L503.39 242.45L503.37 242.44L503.35 242.43L503.33 242.41L503.31 242.4L503.29 242.38L503.27 242.37L503.26 242.35L503.24 242.33L503.22 242.31L503.21 242.29L503.19 242.27L503.18 242.25L503.16 242.23L503.15 242.2L503.13 242.18L503.12 242.16L503.11 242.13L503.1 242.1L503.08 242.08L503.07 242.05L503.06 242.02L503.05 241.99L503.04 241.97L503.03 241.94L503.02 241.91L503.01 241.88L503 241.85L502.99 241.81L502.99 241.78L502.98 241.75L502.97 241.72L502.43 239.69L502.26 239.64L501.89 239.51L501.52 239.36L501.16 239.2L500.8 239.02L500.76 239L498.95 240.05L498.92 240.06L498.9 240.08L498.87 240.1L498.84 240.11L498.81 240.13L498.78 240.14L498.76 240.16L498.73 240.17L498.7 240.18L498.67 240.2L498.64 240.21L498.62 240.22L498.59 240.23L498.56 240.24L498.54 240.25L498.51 240.26L498.48 240.26L498.46 240.27L498.43 240.28L498.41 240.28L498.38 240.29L498.35 240.29L498.33 240.29L498.3 240.29L498.28 240.29L498.26 240.29L498.23 240.29L498.21 240.29L498.19 240.28L498.16 240.28L498.14 240.27L498.12 240.26L498.1 240.25L498.08 240.24L498.05 240.23L498.03 240.22L498.01 240.21L497.99 240.19L497.98 240.17L497.96 240.16L495.31 237.51L495.29 237.49L495.27 237.47L495.26 237.45L495.24 237.43L495.23 237.41L495.22 237.39L495.21 237.37L495.2 237.35L495.2 237.33L495.19 237.3L495.19 237.28L495.18 237.26L495.18 237.24L495.18 237.21L495.18 237.19L495.18 237.17L495.18 237.14L495.18 237.12L495.19 237.09L495.19 237.07L495.2 237.04L495.2 237.02L495.21 236.99L495.22 236.97L495.23 236.94L495.24 236.91L495.25 236.89L495.26 236.86L495.27 236.83L495.28 236.8L495.29 236.77L495.3 236.75L495.32 236.72L495.33 236.69L495.34 236.66L495.36 236.63L495.37 236.6L495.39 236.57L495.4 236.54L495.42 236.51L496.47 234.7L496.45 234.67L496.27 234.31L496.11 233.95L495.96 233.59L495.83 233.21L495.78 233.04L493.75 232.5L493.72 232.49L493.69 232.48L493.66 232.47L493.62 232.46L493.59 232.45L493.56 232.44L493.53 232.43L493.5 232.41L493.48 232.4L493.45 232.39L493.42 232.38L493.39 232.37L493.37 232.36L493.34 232.34L493.31 232.33L493.29 232.32L493.27 232.31L493.24 232.29L493.22 232.28L493.2 232.26L493.18 232.25L493.16 232.23L493.14 232.22L493.12 232.2L493.1 232.19L493.09 232.17L493.07 232.15L493.06 232.14L493.04 232.12L493.03 232.1L493.02 232.08L493.01 232.06L493 232.04L492.99 232.02L492.99 232L492.98 231.97L492.98 231.95L492.97 231.93L492.97 231.9L492.97 231.88L492.97 228.13L492.97 228.1L492.97 228.07L492.98 228.05L492.98 228.03L492.99 228L492.99 227.98L493 227.96L493.01 227.94L493.02 227.92L493.03 227.9L493.04 227.88L493.06 227.86L493.07 227.84L493.09 227.82L493.1 227.8L493.12 227.78L493.14 227.77L493.16 227.75L493.18 227.74L493.2 227.72L493.22 227.71L493.24 227.69L493.27 227.68L493.29 227.66L493.31 227.65L493.34 227.64L493.37 227.63L493.39 227.61L493.42 227.6L493.45 227.59L493.48 227.58L493.5 227.57L493.53 227.56L493.56 227.55L493.59 227.54L493.62 227.53L493.66 227.52L493.69 227.52L493.72 227.51L493.75 227.5L495.78 226.96L495.83 226.79L495.96 226.41L496.11 226.05L496.27 225.69L496.45 225.33L496.47 225.3L495.42 223.48L495.4 223.45L495.39 223.42L495.37 223.39L495.36 223.36L495.34 223.33L495.33 223.3L495.32 223.27L495.3 223.25L495.29 223.22L495.28 223.19L495.27 223.16L495.26 223.13L495.25 223.11L495.24 223.08L495.23 223.05L495.22 223.03L495.21 223L495.2 222.98L495.2 222.95L495.19 222.92L495.19 222.9L495.18 222.87L495.18 222.85L495.18 222.83L495.18 222.8L495.18 222.78L495.18 222.76L495.18 222.73L495.19 222.71L495.19 222.69L495.2 222.67L495.2 222.65L495.21 222.62L495.22 222.6L495.23 222.58L495.24 222.56L495.26 222.54L495.27 222.52L495.29 222.51L495.31 222.49L497.96 219.84L497.98 219.82L497.99 219.8L498.01 219.79L498.03 219.77L498.05 219.76L498.08 219.75L498.1 219.74L498.12 219.73L498.14 219.72L498.16 219.72L498.19 219.71L498.21 219.71L498.23 219.7L498.26 219.7L498.28 219.7L498.3 219.7L498.33 219.7L498.35 219.7L498.38 219.71L498.41 219.71L498.43 219.72L498.46 219.72L498.48 219.73L498.51 219.74L498.54 219.74L498.56 219.75L498.59 219.76L498.62 219.77L498.64 219.78L498.67 219.8L498.7 219.81L498.73 219.82L498.76 219.83L498.78 219.85L498.81 219.86L498.84 219.88L498.87 219.9L498.9 219.91L498.92 219.93L498.95 219.95L500.77 221L500.8 220.98L501.16 220.8L501.52 220.64L501.89 220.49L502.26 220.36L502.43 220.31L502.97 218.28L502.98 218.25L502.99 218.22L502.99 218.19L503 218.15L503.01 218.12L503.02 218.09L503.03 218.06L503.04 218.03L503.05 218.01L503.06 217.98L503.07 217.95L503.08 217.92L503.1 217.9L503.11 217.87L503.12 217.84L503.13 217.82L503.15 217.8L503.16 217.77L503.18 217.75L503.19 217.73L503.21 217.71L503.22 217.69L503.24 217.67L503.26 217.65L503.27 217.63L503.29 217.62L503.31 217.6L503.33 217.59L503.35 217.57L503.37 217.56L503.39 217.55L503.41 217.54L503.43 217.53L503.45 217.52L503.47 217.52L503.5 217.51L503.52 217.51L503.54 217.5L503.57 217.5L503.6 217.5L507.35 217.5L507.37 217.5L507.4 217.5ZM505.02 224.55L504.8 224.57L504.58 224.6L504.37 224.64L504.16 224.69L503.95 224.75L503.74 224.81L503.54 224.88L503.34 224.96L503.15 225.05L502.96 225.14L502.77 225.24L502.59 225.35L502.41 225.47L502.24 225.59L502.07 225.71L501.91 225.85L501.75 225.99L501.6 226.13L501.46 226.28L501.32 226.44L501.18 226.6L501.06 226.77L500.94 226.94L500.82 227.12L500.71 227.3L500.61 227.49L500.52 227.68L500.43 227.87L500.35 228.07L500.28 228.27L500.22 228.48L500.16 228.69L500.11 228.9L500.07 229.11L500.04 229.33L500.02 229.55L500.01 229.77L500 230L500.01 230.23L500.02 230.45L500.04 230.67L500.07 230.89L500.11 231.1L500.16 231.31L500.22 231.52L500.28 231.73L500.35 231.93L500.43 232.13L500.52 232.32L500.61 232.51L500.71 232.7L500.82 232.88L500.94 233.06L501.06 233.23L501.18 233.4L501.32 233.56L501.46 233.72L501.6 233.87L501.75 234.01L501.91 234.15L502.07 234.29L502.24 234.41L502.41 234.53L502.59 234.65L502.77 234.76L502.96 234.86L503.15 234.95L503.34 235.04L503.54 235.12L503.74 235.19L503.95 235.25L504.16 235.31L504.37 235.36L504.58 235.4L504.8 235.43L505.02 235.45L505.24 235.46L505.47 235.47L505.7 235.46L505.92 235.45L506.14 235.43L506.36 235.4L506.57 235.36L506.78 235.31L506.99 235.25L507.2 235.19L507.4 235.12L507.6 235.04L507.79 234.95L507.98 234.86L508.17 234.76L508.35 234.65L508.53 234.53L508.7 234.41L508.87 234.29L509.03 234.15L509.19 234.01L509.34 233.87L509.48 233.72L509.62 233.56L509.76 233.4L509.88 233.23L510.01 233.06L510.12 232.88L510.23 232.7L510.33 232.51L510.42 232.32L510.51 232.13L510.59 231.93L510.66 231.73L510.72 231.52L510.78 231.31L510.83 231.1L510.87 230.89L510.9 230.67L510.92 230.45L510.93 230.23L510.94 230L510.93 229.77L510.92 229.55L510.9 229.33L510.87 229.11L510.83 228.9L510.78 228.69L510.72 228.48L510.66 228.27L510.59 228.07L510.51 227.87L510.42 227.68L510.33 227.49L510.23 227.3L510.12 227.12L510.01 226.94L509.88 226.77L509.76 226.6L509.62 226.44L509.48 226.28L509.34 226.13L509.19 225.99L509.03 225.85L508.87 225.71L508.7 225.59L508.53 225.47L508.35 225.35L508.17 225.24L507.98 225.14L507.79 225.05L507.6 224.96L507.4 224.88L507.2 224.81L506.99 224.75L506.78 224.69L506.57 224.64L506.36 224.6L506.14 224.57L505.92 224.55L505.7 224.54L505.47 224.53L505.24 224.54L505.02 224.55Z" id="cmfdHyeBD"></path><path d="M521.16 237.5L521.17 237.5L521.18 237.51L521.2 237.51L521.21 237.51L521.22 237.52L521.24 237.52L521.25 237.53L521.26 237.54L521.27 237.54L521.28 237.55L521.29 237.56L521.3 237.57L521.31 237.58L521.32 237.59L521.33 237.6L521.34 237.61L521.35 237.62L521.36 237.64L521.37 237.65L521.38 237.66L521.38 237.68L521.39 237.69L521.4 237.71L521.41 237.72L521.41 237.74L521.42 237.75L521.43 237.77L521.44 237.79L521.44 237.8L521.45 237.82L521.46 237.84L521.46 237.86L521.47 237.87L521.47 237.89L521.48 237.91L521.49 237.93L521.49 237.95L521.5 237.97L521.82 239.19L521.93 239.22L522.15 239.3L522.37 239.39L522.59 239.48L522.8 239.59L522.82 239.6L523.91 238.96L523.93 238.95L523.95 238.94L523.97 238.94L523.98 238.93L524 238.92L524.02 238.91L524.04 238.9L524.05 238.89L524.07 238.89L524.09 238.88L524.1 238.87L524.12 238.87L524.14 238.86L524.15 238.85L524.17 238.85L524.18 238.84L524.2 238.84L524.21 238.84L524.23 238.83L524.25 238.83L524.26 238.83L524.28 238.82L524.29 238.82L524.3 238.82L524.32 238.82L524.33 238.82L524.35 238.82L524.36 238.82L524.37 238.83L524.39 238.83L524.4 238.83L524.41 238.84L524.43 238.84L524.44 238.85L524.45 238.85L524.46 238.86L524.47 238.87L524.49 238.88L524.5 238.89L524.51 238.9L526.1 240.49L526.11 240.5L526.12 240.51L526.13 240.52L526.14 240.53L526.14 240.55L526.15 240.56L526.16 240.57L526.16 240.58L526.17 240.6L526.17 240.61L526.17 240.62L526.18 240.64L526.18 240.65L526.18 240.67L526.18 240.68L526.18 240.7L526.18 240.71L526.18 240.73L526.18 240.74L526.17 240.76L526.17 240.77L526.17 240.79L526.16 240.8L526.16 240.82L526.15 240.84L526.15 240.85L526.14 240.87L526.14 240.88L526.13 240.9L526.12 240.92L526.12 240.93L526.11 240.95L526.1 240.97L526.09 240.98L526.08 241L526.07 241.02L526.06 241.03L526.05 241.05L526.04 241.07L526.03 241.08L525.4 242.18L525.41 242.2L525.52 242.41L525.61 242.63L525.7 242.85L525.78 243.07L525.81 243.18L527.03 243.5L527.05 243.5L527.07 243.51L527.09 243.51L527.11 243.52L527.13 243.52L527.14 243.53L527.16 243.54L527.18 243.54L527.2 243.55L527.21 243.55L527.23 243.56L527.25 243.57L527.26 243.58L527.28 243.58L527.29 243.59L527.31 243.6L527.32 243.61L527.34 243.61L527.35 243.62L527.36 243.63L527.38 243.64L527.39 243.65L527.4 243.66L527.41 243.67L527.42 243.68L527.43 243.69L527.44 243.7L527.45 243.71L527.46 243.73L527.46 243.74L527.47 243.75L527.48 243.76L527.48 243.78L527.49 243.79L527.49 243.8L527.49 243.82L527.5 243.83L527.5 243.84L527.5 243.86L527.5 243.88L527.5 246.13L527.5 246.14L527.5 246.16L527.5 246.17L527.49 246.18L527.49 246.2L527.49 246.21L527.48 246.22L527.48 246.24L527.47 246.25L527.46 246.26L527.46 246.27L527.45 246.28L527.44 246.29L527.43 246.3L527.42 246.31L527.41 246.32L527.4 246.33L527.39 246.34L527.38 246.35L527.36 246.36L527.35 246.37L527.34 246.38L527.32 246.38L527.31 246.39L527.29 246.4L527.28 246.41L527.26 246.41L527.25 246.42L527.23 246.43L527.21 246.44L527.2 246.44L527.18 246.45L527.16 246.46L527.14 246.46L527.13 246.47L527.11 246.47L527.09 246.48L527.07 246.49L527.05 246.49L527.03 246.5L525.81 246.82L525.78 246.93L525.7 247.15L525.61 247.37L525.52 247.59L525.41 247.8L525.4 247.82L526.03 248.91L526.04 248.93L526.05 248.94L526.06 248.96L526.07 248.98L526.08 249L526.09 249.01L526.1 249.03L526.11 249.05L526.12 249.06L526.12 249.08L526.13 249.1L526.14 249.11L526.14 249.13L526.15 249.14L526.15 249.16L526.16 249.18L526.16 249.19L526.17 249.21L526.17 249.22L526.17 249.24L526.18 249.25L526.18 249.27L526.18 249.28L526.18 249.3L526.18 249.31L526.18 249.33L526.18 249.34L526.18 249.36L526.17 249.37L526.17 249.38L526.17 249.4L526.16 249.41L526.16 249.42L526.15 249.44L526.14 249.45L526.14 249.46L526.13 249.47L526.12 249.49L526.11 249.5L526.1 249.51L524.51 251.1L524.5 251.11L524.49 251.12L524.47 251.13L524.46 251.14L524.45 251.14L524.44 251.15L524.43 251.16L524.41 251.16L524.4 251.16L524.39 251.17L524.37 251.17L524.36 251.17L524.35 251.17L524.33 251.17L524.32 251.17L524.3 251.17L524.29 251.17L524.28 251.17L524.26 251.17L524.25 251.17L524.23 251.16L524.21 251.16L524.2 251.16L524.18 251.15L524.17 251.15L524.15 251.14L524.14 251.14L524.12 251.13L524.1 251.12L524.09 251.12L524.07 251.11L524.05 251.1L524.04 251.09L524.02 251.09L524 251.08L523.98 251.07L523.97 251.06L523.95 251.05L523.93 251.04L523.91 251.03L522.82 250.4L522.8 250.41L522.59 250.52L522.37 250.61L522.15 250.7L521.93 250.78L521.82 250.81L521.5 252.03L521.49 252.05L521.49 252.07L521.48 252.09L521.47 252.11L521.47 252.13L521.46 252.14L521.46 252.16L521.45 252.18L521.44 252.2L521.44 252.21L521.43 252.23L521.42 252.25L521.41 252.26L521.41 252.28L521.4 252.29L521.39 252.31L521.38 252.32L521.38 252.34L521.37 252.35L521.36 252.36L521.35 252.38L521.34 252.39L521.33 252.4L521.32 252.41L521.31 252.42L521.3 252.43L521.29 252.44L521.28 252.45L521.27 252.46L521.26 252.46L521.25 252.47L521.24 252.48L521.22 252.48L521.21 252.49L521.2 252.49L521.18 252.49L521.17 252.5L521.16 252.5L521.14 252.5L521.13 252.5L518.88 252.5L518.86 252.5L518.84 252.5L518.83 252.5L518.82 252.49L518.8 252.49L518.79 252.49L518.78 252.48L518.76 252.48L518.75 252.47L518.74 252.46L518.73 252.46L518.71 252.45L518.7 252.44L518.69 252.43L518.68 252.42L518.67 252.41L518.66 252.4L518.65 252.39L518.64 252.38L518.63 252.36L518.62 252.35L518.61 252.34L518.61 252.32L518.6 252.31L518.59 252.29L518.58 252.28L518.58 252.26L518.57 252.25L518.56 252.23L518.55 252.21L518.55 252.2L518.54 252.18L518.54 252.16L518.53 252.14L518.52 252.13L518.52 252.11L518.51 252.09L518.51 252.07L518.5 252.05L518.5 252.03L518.18 250.81L518.07 250.78L517.85 250.7L517.63 250.61L517.41 250.52L517.2 250.41L517.17 250.4L516.09 251.03L516.07 251.04L516.06 251.05L516.04 251.06L516.02 251.07L516 251.08L515.99 251.09L515.97 251.09L515.95 251.1L515.94 251.11L515.92 251.12L515.9 251.13L515.89 251.13L515.87 251.14L515.86 251.14L515.84 251.15L515.82 251.15L515.81 251.16L515.79 251.16L515.78 251.17L515.76 251.17L515.75 251.17L515.73 251.17L515.72 251.17L515.7 251.17L515.69 251.17L515.67 251.17L515.66 251.17L515.64 251.17L515.63 251.17L515.62 251.17L515.6 251.16L515.59 251.16L515.58 251.15L515.56 251.15L515.55 251.14L515.54 251.13L515.53 251.12L515.51 251.11L515.5 251.1L515.49 251.09L513.9 249.5L513.89 249.49L513.88 249.48L513.87 249.47L513.86 249.46L513.86 249.45L513.85 249.43L513.84 249.42L513.84 249.41L513.84 249.4L513.83 249.38L513.83 249.37L513.83 249.36L513.83 249.34L513.83 249.33L513.83 249.31L513.83 249.3L513.83 249.29L513.83 249.27L513.83 249.26L513.83 249.24L513.84 249.23L513.84 249.21L513.84 249.19L513.85 249.18L513.85 249.16L513.86 249.15L513.86 249.13L513.87 249.11L513.88 249.1L513.88 249.08L513.89 249.06L513.9 249.05L513.91 249.03L513.91 249.01L513.92 249L513.93 248.98L513.94 248.96L513.95 248.94L513.96 248.92L513.97 248.91L514.6 247.82L514.59 247.8L514.48 247.59L514.39 247.37L514.3 247.15L514.22 246.93L514.19 246.82L512.97 246.5L512.95 246.49L512.93 246.49L512.91 246.48L512.89 246.47L512.87 246.47L512.86 246.46L512.84 246.46L512.82 246.45L512.8 246.44L512.79 246.44L512.77 246.43L512.75 246.42L512.74 246.41L512.72 246.41L512.71 246.4L512.69 246.39L512.68 246.38L512.66 246.38L512.65 246.37L512.64 246.36L512.62 246.35L512.61 246.34L512.6 246.33L512.59 246.32L512.58 246.31L512.57 246.3L512.56 246.29L512.55 246.28L512.54 246.27L512.54 246.26L512.53 246.25L512.52 246.24L512.52 246.22L512.51 246.21L512.51 246.2L512.51 246.18L512.5 246.17L512.5 246.16L512.5 246.14L512.5 246.13L512.5 243.88L512.5 243.86L512.5 243.84L512.5 243.83L512.51 243.82L512.51 243.8L512.51 243.79L512.52 243.78L512.52 243.76L512.53 243.75L512.54 243.74L512.54 243.73L512.55 243.71L512.56 243.7L512.57 243.69L512.58 243.68L512.59 243.67L512.6 243.66L512.61 243.65L512.62 243.64L512.64 243.63L512.65 243.62L512.66 243.61L512.68 243.61L512.69 243.6L512.71 243.59L512.72 243.58L512.74 243.58L512.75 243.57L512.77 243.56L512.79 243.55L512.8 243.55L512.82 243.54L512.84 243.54L512.86 243.53L512.87 243.52L512.89 243.52L512.91 243.51L512.93 243.51L512.95 243.5L512.97 243.5L514.19 243.18L514.22 243.07L514.3 242.85L514.39 242.63L514.48 242.41L514.59 242.2L514.6 242.18L513.97 241.09L513.96 241.07L513.95 241.05L513.94 241.03L513.93 241.02L513.92 241L513.91 240.98L513.91 240.96L513.9 240.95L513.89 240.93L513.88 240.91L513.88 240.9L513.87 240.88L513.86 240.86L513.86 240.85L513.85 240.83L513.85 240.82L513.84 240.8L513.84 240.79L513.84 240.77L513.83 240.75L513.83 240.74L513.83 240.72L513.83 240.71L513.83 240.7L513.83 240.68L513.83 240.67L513.83 240.65L513.83 240.64L513.83 240.63L513.83 240.61L513.84 240.6L513.84 240.59L513.84 240.57L513.85 240.56L513.86 240.55L513.86 240.54L513.87 240.53L513.88 240.51L513.89 240.5L513.9 240.49L515.49 238.9L515.5 238.89L515.51 238.88L515.53 238.87L515.54 238.86L515.55 238.86L515.56 238.85L515.58 238.84L515.59 238.84L515.6 238.83L515.62 238.83L515.63 238.83L515.64 238.82L515.66 238.82L515.67 238.82L515.69 238.82L515.7 238.82L515.72 238.82L515.73 238.82L515.75 238.82L515.76 238.83L515.78 238.83L515.79 238.83L515.81 238.84L515.82 238.84L515.84 238.85L515.86 238.85L515.87 238.86L515.89 238.86L515.9 238.87L515.92 238.88L515.94 238.88L515.95 238.89L515.97 238.9L515.99 238.91L516 238.92L516.02 238.93L516.04 238.94L516.06 238.95L516.07 238.96L516.09 238.97L517.18 239.6L517.2 239.59L517.41 239.48L517.63 239.39L517.85 239.3L518.07 239.22L518.18 239.19L518.5 237.97L518.5 237.95L518.51 237.93L518.51 237.91L518.52 237.89L518.52 237.87L518.53 237.86L518.54 237.84L518.54 237.82L518.55 237.8L518.55 237.79L518.56 237.77L518.57 237.75L518.58 237.74L518.58 237.72L518.59 237.71L518.6 237.69L518.61 237.68L518.61 237.66L518.62 237.65L518.63 237.64L518.64 237.62L518.65 237.61L518.66 237.6L518.67 237.59L518.68 237.58L518.69 237.57L518.7 237.56L518.71 237.55L518.73 237.54L518.74 237.54L518.75 237.53L518.76 237.52L518.78 237.52L518.79 237.51L518.8 237.51L518.82 237.51L518.83 237.5L518.84 237.5L518.86 237.5L518.88 237.5L521.13 237.5L521.14 237.5L521.16 237.5ZM519.73 241.73L519.6 241.74L519.47 241.76L519.34 241.79L519.21 241.81L519.09 241.85L518.96 241.89L518.84 241.93L518.72 241.98L518.61 242.03L518.49 242.08L518.38 242.15L518.27 242.21L518.17 242.28L518.06 242.35L517.96 242.43L517.86 242.51L517.77 242.59L517.68 242.68L517.59 242.77L517.51 242.86L517.43 242.96L517.35 243.06L517.28 243.17L517.21 243.27L517.15 243.38L517.08 243.49L517.03 243.61L516.98 243.72L516.93 243.84L516.89 243.96L516.85 244.09L516.81 244.21L516.79 244.34L516.76 244.47L516.74 244.6L516.73 244.73L516.72 244.86L516.72 245L516.72 245.14L516.73 245.27L516.74 245.4L516.76 245.53L516.79 245.66L516.81 245.79L516.85 245.91L516.89 246.04L516.93 246.16L516.98 246.28L517.03 246.39L517.08 246.51L517.15 246.62L517.21 246.73L517.28 246.83L517.35 246.94L517.43 247.04L517.51 247.14L517.59 247.23L517.68 247.32L517.77 247.41L517.86 247.49L517.96 247.57L518.06 247.65L518.17 247.72L518.27 247.79L518.38 247.85L518.49 247.92L518.61 247.97L518.72 248.02L518.84 248.07L518.96 248.11L519.09 248.15L519.21 248.19L519.34 248.21L519.47 248.24L519.6 248.26L519.73 248.27L519.86 248.28L520 248.28L520.14 248.28L520.27 248.27L520.4 248.26L520.53 248.24L520.66 248.21L520.79 248.19L520.91 248.15L521.04 248.11L521.16 248.07L521.28 248.02L521.39 247.97L521.51 247.92L521.62 247.85L521.73 247.79L521.83 247.72L521.94 247.65L522.04 247.57L522.14 247.49L522.23 247.41L522.32 247.32L522.41 247.23L522.49 247.14L522.57 247.04L522.65 246.94L522.72 246.83L522.79 246.73L522.85 246.62L522.92 246.51L522.97 246.39L523.02 246.28L523.07 246.16L523.11 246.04L523.15 245.91L523.19 245.79L523.21 245.66L523.24 245.53L523.26 245.4L523.27 245.27L523.28 245.14L523.28 245L523.28 244.86L523.27 244.73L523.26 244.6L523.24 244.47L523.21 244.34L523.19 244.21L523.15 244.09L523.11 243.96L523.07 243.84L523.02 243.72L522.97 243.61L522.92 243.49L522.85 243.38L522.79 243.27L522.72 243.17L522.65 243.06L522.57 242.96L522.49 242.86L522.41 242.77L522.32 242.68L522.23 242.59L522.14 242.51L522.04 242.43L521.94 242.35L521.83 242.28L521.73 242.21L521.62 242.15L521.51 242.08L521.39 242.03L521.28 241.98L521.16 241.93L521.04 241.89L520.91 241.85L520.79 241.81L520.66 241.79L520.53 241.76L520.4 241.74L520.27 241.73L520.14 241.72L520 241.72L519.86 241.72L519.73 241.73Z" id="a26qXhy2ZY"></path><path d="M220.3 140L220.3 293C218.48 293 217.34 293 216.88 293C210.1 293 204.59 287.5 204.59 280.71C204.59 252.57 204.59 179.32 204.59 150.89C204.59 144.88 209.47 140 215.49 140C216.13 140 217.73 140 220.3 140Z" id="cGjWRjKRA"></path><path d="M280 350L350 350L365 292.97L295 292.97L280 350Z" id="g9wI5PAr49"></path><path d="M429.53 143.8C435.05 143.8 439.53 148.28 439.53 153.8C439.53 181.04 439.53 252.76 439.53 280C439.53 285.52 435.05 290 429.53 290C386.72 290 268.28 290 225.47 290C219.95 290 215.47 285.52 215.47 280C215.47 252.76 215.47 181.04 215.47 153.8C215.47 148.28 219.95 143.8 225.47 143.8C268.28 143.8 386.72 143.8 429.53 143.8Z" id="g6FnqWer0"></path><path d="M279.71 351.24L269.71 351.24L285.12 293.76L295 293.76L279.71 351.24Z" id="b4NzpbCzN"></path><path d="M240 370L390 370L390 350L240 350L240 370Z" id="b8p6oSd7"></path><path d="M232.97 370L240 370L240 350L232.97 350L232.97 370Z" id="d3Y6t3Trou"></path><path d="M440 340L460 340L460 370L440 370L440 340Z" id="a1jPuifiCM"></path><path d="M480.23 320L500 320L500 370L480.23 370L480.23 320Z" id="b4AxO7aQ1e"></path><path d="M520 300L539.77 300L539.77 370L520 370L520 300Z" id="ji0VAij8H"></path><path d="M560 270L579.77 270L579.77 370L560 370L560 270Z" id="f71id3K0yI"></path><path d="M600.23 240L620 240L620 370L600.23 370L600.23 240Z" id="c7jOrB34p"></path><path d="M440 370L430 370L430 340L440 340L440 370Z" id="b1T7wxjPtM"></path><path d="M480 370L470 370L470 320L480 320L480 370Z" id="bM41Kb4DF"></path><path d="M520 370L510 370L510 300L520 300L520 370Z" id="c5woxsy22"></path><path d="M560 370L550 370L550 270L560 270L560 370Z" id="c1mkpCiZ64"></path><path d="M600 370L590 370L590 240L600 240L600 370Z" id="bxfEwWyGR"></path><path d="M230 190L242.97 180L260 190L277.91 170L290 180L310 160L320 190L320 200L230 200L230 190Z" id="i6XzBgeHTS"></path><path d="M230 200L242.97 190L260 200L277.91 180L290 190L307.03 173.95L320 200L320 210L230 210L230 200Z" id="etM5OVfWv"></path><path d="M346.18 182.5C351.96 179.1 354.92 189.92 363.16 188.9C371.39 187.87 370.88 178.9 379.11 178.4C387.35 177.9 387.47 188.37 396.09 186.9C404.71 185.42 405.61 168.6 413.59 172.5C418.91 175.1 423.71 185.1 428 202.5L340 202.5C340.26 191.43 342.32 184.77 346.18 182.5Z" id="b5bgycRFl"></path><path d="M346.32 190C352.24 186.6 355.26 197.42 363.68 196.4C372.11 195.37 371.58 186.4 380 185.9C388.42 185.4 388.55 195.87 397.37 194.4C406.18 192.92 407.11 176.1 415.26 180C420.7 182.6 425.61 192.6 430 210L340 210C340.26 198.93 342.37 192.27 346.32 190Z" id="al6yjYOCs"></path><path d="M410 170L340 170" id="boNj2nkOu"></path><path d="M420 164.9L330 164.9" id="ivSidYuvc"></path><path d="M370 160L340 160" id="d2jdAQBsgq"></path><path d="M410 160L380 160" id="e1CKnVV8UE"></path><path d="M300 160L230 160" id="d372gOcDUi"></path><path d="M255 165.5L225 165.5" id="c3ESHPtCJn"></path><path d="M290 166L260 166" id="b2vDJP9wZi"></path><path d="" id="f4FWmraRO0"></path><path d="" id="a22yWkTUVG"></path><path d="" id="c3FiZrAOhf"></path><path d="" id="bn5FExjQt"></path><path d="M350 280L340 280L340 250L350 250L350 280Z" id="bK6qWULuH"></path><path d="M370 280L360 280L360 230L370 230L370 280Z" id="jcPJ2laNf"></path><path d="M390 280L380 280L380 260L390 260L390 280Z" id="b1l92pGIN"></path><path d="M410 280L400 280L400 240L410 240L410 280Z" id="b133zhAdwX"></path><path d="M430 280L420 280L420 230L430 230L430 280Z" id="but5bvaw0"></path><path d="M242.86 241.92C241.24 245.28 240.45 248.63 240.5 251.96C240.55 255.29 241.43 258.61 243.14 261.92L263 251.64L242.86 241.92Z" id="a6Kz5T3LA"></path><path d="M244.16 264.24C245.87 267.55 248.07 270.19 250.76 272.15C253.46 274.12 256.64 275.41 260.32 276.03L264.02 253.97L244.16 264.24Z" id="d7BBpohUSi"></path><path d="M261.95 276.43C265.72 277.01 269.24 276.78 272.52 275.77C275.79 274.75 278.82 272.94 281.6 270.33L265.84 254.28L261.95 276.43Z" id="a9WhIOOL"></path><path d="M283.27 268.21C285.92 265.59 287.79 262.71 288.86 259.55C289.94 256.4 290.23 252.97 289.73 249.28L267.57 252.28L283.27 268.21Z" id="c1SbvvyyTQ"></path><path d="M292.2 245C290.13 239.96 286.76 235.4 282.1 231.3C277.44 227.2 271 225.27 262.8 225.5L267 248.5L292.2 245Z" id="atUHfrAq9"></path><path d="M259.48 227.99C255.82 228.69 252.67 230.06 250.02 232.09C247.38 234.11 245.24 236.8 243.61 240.15L263.71 249.95L259.48 227.99Z" id="a1wu18P6QW"></path></defs><g><g><use xlink:href="#dF69SVfiE" opacity="1" fill="#f5fbfe" fill-opacity="1"></use></g><g><use xlink:href="#c8FOBPMAg" opacity="1" fill="#def1fd" fill-opacity="1"></use></g><g><use xlink:href="#ajuJlPC" opacity="1" fill="#00b6f9" fill-opacity="1"></use></g><g><use xlink:href="#c12IP5wRoS" opacity="1" fill="#acdffb" fill-opacity="1"></use></g><g><use xlink:href="#ebzv2H8RI" opacity="1" fill="#acdffb" fill-opacity="1"></use></g><g><use xlink:href="#jdWflSHKw" opacity="1" fill="#ffffff" fill-opacity="1"></use></g><g><use xlink:href="#b1NA7t4eO8" opacity="1" fill="#ffffff" fill-opacity="1"></use></g><g><use xlink:href="#b3doOFn1R2" opacity="1" fill="#ffffff" fill-opacity="1"></use><g><use xlink:href="#b3doOFn1R2" opacity="1" fill-opacity="0" stroke="#ffffff" stroke-width="1" stroke-opacity="1"></use></g></g><g><use xlink:href="#c13WaJGzo1" opacity="1" fill="#6fcbfa" fill-opacity="1"></use></g><g><use xlink:href="#gi1wmrDrF" opacity="1" fill="#ffffff" fill-opacity="1"></use></g><g><use xlink:href="#c3dC6M4A5J" opacity="1" fill="#acdffb" fill-opacity="1"></use></g><g><use xlink:href="#g1Vy0GNduJ" opacity="1" fill="#ffffff" fill-opacity="1"></use></g><g><use xlink:href="#b48Axv9cZi" opacity="1" fill="#6fcbfa" fill-opacity="1"></use></g><g><use xlink:href="#cmfdHyeBD" opacity="1" fill="#ffffff" fill-opacity="1"></use></g><g><use xlink:href="#a26qXhy2ZY" opacity="1" fill="#ffffff" fill-opacity="1"></use></g><g><use xlink:href="#cGjWRjKRA" opacity="1" fill="#00b6f8" fill-opacity="1"></use></g><g><use xlink:href="#g9wI5PAr49" opacity="1" fill="#6fcbfa" fill-opacity="1"></use></g><g><use xlink:href="#g6FnqWer0" opacity="1" fill="#ffffff" fill-opacity="1"></use><g><use xlink:href="#g6FnqWer0" opacity="1" fill-opacity="0" stroke="#a7defc" stroke-width="8" stroke-opacity="1"></use></g></g><g><use xlink:href="#b4NzpbCzN" opacity="1" fill="#00b6f9" fill-opacity="1"></use></g><g><use xlink:href="#b8p6oSd7" opacity="1" fill="#acdffb" fill-opacity="1"></use></g><g><use xlink:href="#d3Y6t3Trou" opacity="1" fill="#01b6fa" fill-opacity="1"></use></g><g><use xlink:href="#a1jPuifiCM" opacity="1" fill="#61cafd" fill-opacity="1"></use></g><g><use xlink:href="#b4AxO7aQ1e" opacity="1" fill="#61cafd" fill-opacity="1"></use></g><g><use xlink:href="#ji0VAij8H" opacity="1" fill="#61cafd" fill-opacity="1"></use></g><g><use xlink:href="#f71id3K0yI" opacity="1" fill="#61cafd" fill-opacity="1"></use></g><g><use xlink:href="#c7jOrB34p" opacity="1" fill="#61cafd" fill-opacity="1"></use></g><g><use xlink:href="#b1T7wxjPtM" opacity="1" fill="#00b5fb" fill-opacity="1"></use></g><g><use xlink:href="#bM41Kb4DF" opacity="1" fill="#00b5fb" fill-opacity="1"></use></g><g><use xlink:href="#c5woxsy22" opacity="1" fill="#00b5fb" fill-opacity="1"></use></g><g><use xlink:href="#c1mkpCiZ64" opacity="1" fill="#00b5fb" fill-opacity="1"></use></g><g><use xlink:href="#bxfEwWyGR" opacity="1" fill="#00b5fb" fill-opacity="1"></use></g><g><use xlink:href="#i6XzBgeHTS" opacity="1" fill="#00b8fd" fill-opacity="1"></use></g><g><use xlink:href="#etM5OVfWv" opacity="1" fill="#2d47af" fill-opacity="1"></use></g><g><use xlink:href="#b5bgycRFl" opacity="1" fill="#75c8f7" fill-opacity="1"></use></g><g><use xlink:href="#al6yjYOCs" opacity="1" fill="#ff7eae" fill-opacity="1"></use></g><g><g><use xlink:href="#boNj2nkOu" opacity="1" fill-opacity="0" stroke="#99dbfe" stroke-width="1" stroke-opacity="1"></use></g></g><g><g><use xlink:href="#ivSidYuvc" opacity="1" fill-opacity="0" stroke="#99dbfe" stroke-width="1" stroke-opacity="1"></use></g></g><g><g><use xlink:href="#d2jdAQBsgq" opacity="1" fill-opacity="0" stroke="#99dbfe" stroke-width="1" stroke-opacity="1"></use></g></g><g><g><use xlink:href="#e1CKnVV8UE" opacity="1" fill-opacity="0" stroke="#99dbfe" stroke-width="1" stroke-opacity="1"></use></g></g><g><g><use xlink:href="#d372gOcDUi" opacity="1" fill-opacity="0" stroke="#99dbfe" stroke-width="1" stroke-opacity="1"></use></g></g><g><g><use xlink:href="#c3ESHPtCJn" opacity="1" fill-opacity="0" stroke="#99dbfe" stroke-width="1" stroke-opacity="1"></use></g></g><g><g><use xlink:href="#b2vDJP9wZi" opacity="1" fill-opacity="0" stroke="#99dbfe" stroke-width="1" stroke-opacity="1"></use></g></g><g><g><use xlink:href="#f4FWmraRO0" opacity="1" fill-opacity="0" stroke="#99dbfe" stroke-width="1" stroke-opacity="1"></use></g></g><g><g><use xlink:href="#a22yWkTUVG" opacity="1" fill-opacity="0" stroke="#99dbfe" stroke-width="5" stroke-opacity="1"></use></g></g><g><g><use xlink:href="#c3FiZrAOhf" opacity="1" fill-opacity="0" stroke="#43555f" stroke-width="5" stroke-opacity="1"></use></g></g><g><g><use xlink:href="#bn5FExjQt" opacity="1" fill-opacity="0" stroke="#43555f" stroke-width="5" stroke-opacity="1"></use></g></g><g><use xlink:href="#bK6qWULuH" opacity="1" fill="#00b5fb" fill-opacity="1"></use></g><g><use xlink:href="#jcPJ2laNf" opacity="1" fill="#00b5fb" fill-opacity="1"></use></g><g><use xlink:href="#b1l92pGIN" opacity="1" fill="#00b5fb" fill-opacity="1"></use></g><g><use xlink:href="#b133zhAdwX" opacity="1" fill="#00b5fb" fill-opacity="1"></use></g><g><use xlink:href="#but5bvaw0" opacity="1" fill="#00b5fb" fill-opacity="1"></use></g><g><use xlink:href="#a6Kz5T3LA" opacity="1" fill="#2d47af" fill-opacity="1"></use><g><use xlink:href="#a6Kz5T3LA" opacity="1" fill-opacity="0" stroke="#2d47af" stroke-width="2" stroke-opacity="1"></use></g></g><g><use xlink:href="#d7BBpohUSi" opacity="1" fill="#6fcbfa" fill-opacity="1"></use><g><use xlink:href="#d7BBpohUSi" opacity="1" fill-opacity="0" stroke="#6fcbfa" stroke-width="2" stroke-opacity="1"></use></g></g><g><use xlink:href="#a9WhIOOL" opacity="1" fill="#6fcbfa" fill-opacity="1"></use><g><use xlink:href="#a9WhIOOL" opacity="1" fill-opacity="0" stroke="#6fcbfa" stroke-width="2" stroke-opacity="1"></use></g></g><g><use xlink:href="#c1SbvvyyTQ" opacity="1" fill="#008ae8" fill-opacity="1"></use><g><use xlink:href="#c1SbvvyyTQ" opacity="1" fill-opacity="0" stroke="#008ae8" stroke-width="2" stroke-opacity="1"></use></g></g><g><use xlink:href="#atUHfrAq9" opacity="1" fill="#ff7eae" fill-opacity="1"></use><g><use xlink:href="#atUHfrAq9" opacity="1" fill-opacity="0" stroke="#ff7eae" stroke-width="2" stroke-opacity="1"></use></g></g><g><use xlink:href="#a1wu18P6QW" opacity="1" fill="#2d47af" fill-opacity="1"></use><g><use xlink:href="#a1wu18P6QW" opacity="1" fill-opacity="0" stroke="#2d47af" stroke-width="2" stroke-opacity="1"></use></g></g></g></svg>